# xmcd
#
# Track frame offsets:
#        150
#        12877
#        25856
#        42539
#        55522
#        66549
#        78438
#        92240
#        104771
#        118239
#        132397
#        143884
#        157340
#        167056
#        179917
#        192953
#
# Disc length: 2764 seconds
#
# Revision: 0
# Processed by: cddbd v1.5.2PL0 Copyright (c) Steve Scherf et al.
# Submitted via: CDGFix 3.8d
#
DISCID=f30aca10
DTITLE=Various Artist - CB5082D03
DYEAR=1900
DGENRE=Karaoke
TTITLE0=Ernest Tubb - Have You Ever Been Lonely
TTITLE1=Bob Wills and His Texas Playboys - Take Me Back To Tulsa
TTITLE2=Pee Wee King - Tennessee Waltz
TTITLE3=Eddy Arnold - A Heart Full Of Love
TTITLE4=Sons Of The Pioneers - Tumbling Tumbleweeds
TTITLE5=Bob Wills and His Texas Playboys - Sugar Moon
TTITLE6=Eddy Arnold - What Is Life Without Love
TTITLE7=Gene Autry - Don't Fence Me In
TTITLE8=Al Dexter and His Troopers - I Learned A Lot About Love From You
TTITLE9=Tex Ritter and His Texans - You Will Have To Pay
TTITLE10=Eddy Arnold - One Kiss Too Many
TTITLE11=Jimmy Wakely - One Has My Name, The Other Has My Heart
TTITLE12=Margaret Whiting and Jimmy Wakely - Slipping Around
TTITLE13=Eddy Arnold - I'm Throwing Rice (At The Girl That I Love)
TTITLE14=Red Foley - Tennessee Saturday Night
TTITLE15=Tennessee Ernie Ford - Mule Train
EXTD=
EXTT0=
EXTT1=
EXTT2=
EXTT3=
EXTT4=
EXTT5=
EXTT6=
EXTT7=
EXTT8=
EXTT9=
EXTT10=
EXTT11=
EXTT12=
EXTT13=
EXTT14=
EXTT15=
PLAYORDER=
